<?xml version="1.0" encoding="utf-8"?>
<!-- Generator: Adobe Illustrator 21.1.0, SVG Export Plug-In . SVG Version: 6.00 Build 0)  -->
<svg version="1.1" id="Layer_1" xmlns="http://www.w3.org/2000/svg" xmlns:xlink="http://www.w3.org/1999/xlink" x="0px" y="0px"
	 viewBox="0 0 182.9 95.8" style="enable-background:new 0 0 182.9 95.8;" xml:space="preserve">
<style type="text/css">
	.st0{fill:#FFFFFF;}
	.st1{fill:#37444F;}
</style>
<g>
	<g>
		<polygon class="st0" points="26.5,2.9 26.5,65 91.4,94.7 156.3,65 156.3,2.9 91.4,32.6 		"/>
		<path class="st1" d="M91.4,95.8L25.5,65.6V1.3l65.9,30.2l65.9-30.2v64.3L91.4,95.8z M27.5,64.3l63.9,29.3l63.9-29.3V4.5L91.4,33.7
			L27.5,4.5V64.3z"/>
	</g>
	<g>
		<line class="st0" x1="91.4" y1="32.6" x2="91.4" y2="94.7"/>
		<rect x="90.4" y="32.6" class="st1" width="2" height="62.1"/>
	</g>
	<g>
		<polygon class="st0" points="69.9,55.8 1.7,24.7 23.3,1.2 91.5,32.4 		"/>
		<path class="st1" d="M70.1,57.1L0,25L23.1,0l70.1,32L70.1,57.1z M3.3,24.3l66.3,30.3l20.2-21.9L23.6,2.4L3.3,24.3z"/>
	</g>
	<g>
		<polygon class="st0" points="113,55.8 181.2,24.7 159.6,1.2 91.4,32.4 		"/>
		<path class="st1" d="M112.8,57.1L89.7,32l70.1-32l23.1,25L112.8,57.1z M93,32.7l20.2,21.9l66.3-30.3L159.3,2.4L93,32.7z"/>
	</g>
</g>
</svg>
