<?xml version="1.0" encoding="utf-8"?>
<!-- Generator: Adobe Illustrator 21.1.0, SVG Export Plug-In . SVG Version: 6.00 Build 0)  -->
<svg version="1.1" id="Layer_1" xmlns="http://www.w3.org/2000/svg" xmlns:xlink="http://www.w3.org/1999/xlink" x="0px" y="0px"
	 viewBox="0 0 140 73" style="enable-background:new 0 0 140 73;" xml:space="preserve">
<style type="text/css">
	.st0{fill:#FFFFFF;}
	.st1{fill:#37444F;}
	.st2{fill:url(#SVGID_1_);}
	.st3{fill:url(#SVGID_2_);}
	.st4{fill:#8C2B00;}
	.st5{fill:url(#SVGID_3_);}
	.st6{fill:#265C7A;}
</style>
<g>
	<polygon class="st0" points="17.9,52.1 17.9,65.6 32.1,72.1 46.2,65.6 46.2,52.1 32.1,58.6 	"/>
	<path class="st1" d="M32.1,57.8L17.2,51v15.1l14.8,6.8l14.8-6.8V51L32.1,57.8z M18.6,53.2L31.3,59v12l-12.7-5.8V53.2z M45.5,65.1
		L32.8,71V59l12.7-5.8V65.1z"/>
	<polygon class="st0" points="27.4,63.6 12.5,56.8 17.2,51.7 32.1,58.5 	"/>
	<path class="st1" d="M27.5,64.5l-16.2-7.4l5.7-6.2l16.2,7.4L27.5,64.5z M13.7,56.6l13.5,6.2l3.7-4l-13.5-6.2L13.7,56.6z"/>
	<polygon class="st0" points="36.8,63.6 51.6,56.8 46.9,51.7 32.1,58.5 	"/>
	<path class="st1" d="M36.6,64.5l-5.7-6.2l16.2-7.4l5.7,6.2L36.6,64.5z M33.2,58.7l3.7,4l13.5-6.2l-3.7-4L33.2,58.7z"/>
	<linearGradient id="SVGID_1_" gradientUnits="userSpaceOnUse" x1="10.7735" y1="35.6526" x2="52.7363" y2="35.6526">
		<stop  offset="0" style="stop-color:#FFE2BD"/>
		<stop  offset="0.2203" style="stop-color:#FEDEB9"/>
		<stop  offset="0.4587" style="stop-color:#FDD4AC"/>
		<stop  offset="0.7056" style="stop-color:#FAC296"/>
		<stop  offset="0.9569" style="stop-color:#F6A978"/>
		<stop  offset="1" style="stop-color:#F5A472"/>
	</linearGradient>
	<path class="st2" d="M30.9,17.2L14.9,29l0.4,7.2c0,0-2.3-0.3-3.4,0.7c-0.8,0.7-1.2,2-1.1,3.1c0.1,1.6,1.7,3.1,2.6,3.6
		c1.2,0.7,3.1,0.6,3.1,0.6s0.4,2,0.6,2.4c0.7,1.3,13.3,7.4,15,7.4c2.3,0,13.7-6.7,14.7-7.6c0.4-0.4,0.5-2.4,0.5-2.4s2,0.2,3.3-0.5
		c1-0.6,2.2-2.1,2.1-3.8c0-0.7-0.5-1.9-1.3-2.5c-0.7-0.5-3-1-3-1l0.2-8.2L30.9,17.2z"/>
	<path class="st1" d="M32.1,54.9c-1.7,0-14.8-6.2-15.7-7.8c-0.2-0.4-0.4-1.4-0.6-2.1c-0.7,0-1.9-0.2-2.8-0.7c-1.1-0.6-2.9-2.3-3-4.2
		c-0.1-1.4,0.5-2.9,1.4-3.7c0.9-0.8,2.2-1,3.1-1c0,0,0,0,0,0l-0.4-6.7l16.7-12.4l18.5,11.4l-0.2,8c0.8,0.2,2.2,0.6,2.7,1
		c1.1,0.8,1.6,2.3,1.6,3.1c0.1,1.9-1.2,3.7-2.5,4.5c-0.9,0.6-2.2,0.7-3,0.7c-0.1,0.8-0.3,1.8-0.7,2.2C46.3,48.1,34.7,54.9,32.1,54.9
		z M17.1,43.5l0.1,0.6c0.2,0.9,0.4,2,0.5,2.2c0.9,1.1,12.8,7,14.3,7c2,0,13.2-6.5,14.2-7.4c0.1-0.2,0.3-1.1,0.3-1.9l0-0.8l0.8,0.1
		c0.5,0.1,2,0.1,2.8-0.4c0.7-0.4,1.8-1.7,1.7-3.1c0-0.5-0.4-1.5-1-1.9c-0.3-0.2-1.7-0.7-2.8-0.9l-0.6-0.1l0.2-8.4L30.9,18.1
		L15.7,29.4l0.4,7.7l-0.9-0.1c-0.5-0.1-2.1-0.1-2.8,0.5c-0.6,0.5-1,1.6-0.9,2.5c0.1,1.2,1.3,2.5,2.2,3c0.8,0.5,2.2,0.5,2.7,0.5
		L17.1,43.5z"/>
	
		<ellipse transform="matrix(9.236269e-02 -0.9957 0.9957 9.236269e-02 -17.4313 57.027)" class="st0" cx="22.6" cy="38.1" rx="3.1" ry="3.1"/>
	<path class="st1" d="M22.6,41.9c-0.1,0-0.2,0-0.4,0c-2.1-0.2-3.7-2.1-3.5-4.2c0.2-2.1,2.1-3.7,4.2-3.5c2.1,0.2,3.7,2.1,3.5,4.2
		c-0.1,1-0.6,2-1.4,2.6C24.3,41.6,23.5,41.9,22.6,41.9z M22.6,35.7c-1.2,0-2.3,0.9-2.4,2.2c-0.1,1.3,0.8,2.5,2.1,2.6
		c0.6,0.1,1.2-0.1,1.7-0.5c0.5-0.4,0.8-1,0.8-1.6v0c0.1-1.3-0.8-2.5-2.1-2.6C22.7,35.7,22.6,35.7,22.6,35.7z"/>
	
		<ellipse transform="matrix(9.236269e-02 -0.9957 0.9957 9.236269e-02 -3.5792 72.0574)" class="st0" cx="37.7" cy="38" rx="3.1" ry="3.1"/>
	<path class="st1" d="M37.7,41.9c-0.1,0-0.2,0-0.4,0c-1-0.1-2-0.6-2.6-1.4c-0.7-0.8-1-1.8-0.9-2.8c0.2-2.1,2.1-3.7,4.2-3.5
		c1,0.1,2,0.6,2.6,1.4c0.7,0.8,1,1.8,0.9,2.8l0,0C41.4,40.3,39.7,41.9,37.7,41.9z M37.7,35.6c-1.2,0-2.3,0.9-2.4,2.2
		c-0.1,0.6,0.1,1.2,0.5,1.7c0.4,0.5,1,0.8,1.6,0.8c1.3,0.1,2.5-0.8,2.6-2.1l0,0c0.1-0.6-0.1-1.2-0.5-1.7c-0.4-0.5-1-0.8-1.6-0.8
		C37.9,35.6,37.8,35.6,37.7,35.6z"/>
	<path class="st1" d="M32.7,46.1c-0.3,0-0.5-0.1-0.7-0.4c0,0-0.6-0.9-2.1-1c0,0,0,0-0.1,0c-1.2,0-1.8,0.9-1.8,0.9
		c-0.2,0.3-0.7,0.4-1,0.2c-0.3-0.2-0.4-0.7-0.2-1c0-0.1,1.1-1.6,3.2-1.6c2.4,0.1,3.4,1.7,3.4,1.8c0.2,0.4,0.1,0.8-0.3,1
		C32.9,46,32.8,46.1,32.7,46.1z"/>
	<linearGradient id="SVGID_2_" gradientUnits="userSpaceOnUse" x1="32.0729" y1="41.8884" x2="32.0729" y2="1.3269">
		<stop  offset="0" style="stop-color:#982323"/>
		<stop  offset="0.6533" style="stop-color:#D03323"/>
		<stop  offset="1" style="stop-color:#EF3C23"/>
	</linearGradient>
	<path class="st3" d="M10.2,33.9c2.3,4.3,6.2,7.9,6.2,7.9l0.5-16.3l2.3,6l5.8-11c0,0-1.6,4.2-0.9,11.5c0.6,6.1,3.4,7.9,3.4,7.9
		s0.9-1.4,2.3-2.9c1.4-1.5,2.9-2.7,4.7-5c1.1-1.4,3.3-5.1,3.3-5.1L37.2,34l4.9-4.5c0,0,1,5.3,1,7.1c0,1.3-0.6,5.4-0.6,5.4
		s10.2-4.2,15.8-9.5c2.4-2.3,4.7-4.5,4.7-4.5s-3.9-1.5-6.4-3.5c-3.9-3.2-7-7.1-7-7.1l5.6-2.9c0,0-3.3-0.8-7.7-3.2
		c-2.1-1.1-4.2-2.5-4.2-2.5l-6,3.1c0,0-0.4-2-2.5-5.5c-1.8-3-6.2-4.9-6.2-4.9L29.1,7c0,0-5.4-1.8-9.1-2.3C13.9,3.9,6.3,4.5,6.3,4.5
		s2.6,4.7,4.1,9c1,3.1,1.2,5.4,1.2,5.4L1.2,28.5L10.2,33.9z"/>
	<path class="st4" d="M17.1,43.5l-1.2-1.1c-0.2-0.2-3.9-3.7-6.2-8L0,28.6l10.7-10c-0.1-0.7-0.4-2.6-1.1-4.8c-1.4-4.2-4-8.9-4-8.9
		L5,3.8l1.2-0.1C6.5,3.7,14,3.2,20.1,4c2.7,0.4,6.3,1.4,8.1,2l-0.6-5.8l1.2,0.5c0.2,0.1,4.5,2,6.5,5.2c1.4,2.2,2,3.8,2.4,4.8
		l5.6-2.9l0.4,0.2c0,0,2.1,1.4,4.2,2.5c4.2,2.3,7.5,3.1,7.5,3.1l1.9,0.5l-6.5,3.4c1.1,1.3,3.5,4,6.3,6.3c2.3,1.9,6.1,3.4,6.2,3.4
		l1.1,0.4l-0.8,0.8c0,0-2.4,2.3-4.7,4.5c-5.6,5.4-15.6,9.5-16,9.7l-1.2,0.5l0.2-1.3c0.2-1.1,0.6-2.6,0.6-5.2c0-2.2-0.5-4-0.8-5.6
		l-5.3,4.9l0.5-5.9c-0.6,1-1.3,2-1.7,2.6c-1.2,1.7-2.4,2.8-3.5,3.8c-0.4,0.4-0.8,0.8-1.3,1.3C29,39,28.1,40.3,28,40.3l-0.4,0.6
		L27,40.5c-0.1-0.1-3.1-2.1-3.7-8.5c-0.3-2.6-0.2-4.9,0-6.7l-4.2,8l-1.6-4.1L17.1,43.5z M42.5,28l0.3,1.3c0,0.2,1,3.9,1.1,7.2
		c0,1.9-0.2,2.8-0.4,4.1c2.9-1.3,10-4.8,14.3-8.8c1.5-1.4,3-2.9,3.9-3.7c-1.4-0.6-3.8-1.8-5.5-3.2c-3.9-3.2-7-7.1-7.1-7.2l-0.6-0.7
		l4.8-2.5c-1.4-0.5-3.6-1.3-6.1-2.7c-1.6-0.9-3.2-1.9-3.9-2.3l-6.5,3.4l-0.2-1c0,0-0.4-1.9-2.4-5.2c-1.1-1.8-3.3-3.2-4.7-4l0.6,5.5
		l-1.1-0.4c-0.1,0-5.4-1.8-8.9-2.3C15.3,4.8,9.8,5,7.5,5.2c0.9,1.6,2.5,4.9,3.6,8.1c1,3.1,1.2,5.4,1.2,5.5l0,0.4l-9.9,9.2l6.2,3.9
		c-0.1-0.1-0.1-0.3-0.1-0.4c-0.7-2.1,0-4.9,0-4.9c0,0,0.8,2.5,1.4,4.4c1.2,3.6,4.1,7,5.8,8.8l0.6-18.3l3,7.9l6.1-11.7
		c0,0-1.3,6.8-0.6,13.8c0.4,4,1.7,6,2.5,6.9c0.4-0.6,1.1-1.4,1.9-2.3c0.4-0.4,0.9-0.9,1.3-1.3c1-1,2.1-2.1,3.3-3.6
		c1-1.4,3.2-5,3.3-5.1l1.6-2.7l-0.7,8.3L42.5,28z"/>
	<linearGradient id="SVGID_3_" gradientUnits="userSpaceOnUse" x1="37.7234" y1="59.1562" x2="37.7234" y2="43.8432">
		<stop  offset="7.667733e-08" style="stop-color:#2976C4"/>
		<stop  offset="0.1462" style="stop-color:#298ECD"/>
		<stop  offset="0.342" style="stop-color:#29A8D6"/>
		<stop  offset="0.5454" style="stop-color:#29BADD"/>
		<stop  offset="0.7591" style="stop-color:#29C4E1"/>
		<stop  offset="1" style="stop-color:#29C8E2"/>
	</linearGradient>
	<path class="st5" d="M37.5,43.8c0,0-4.1,8-4.1,10.8c0,2.3,1.4,4.4,4,4.5c2,0,4.3-0.7,4.6-3.7C42.3,52.1,37.5,43.8,37.5,43.8z"/>
	<path class="st6" d="M37.6,59.9c-0.1,0-0.1,0-0.2,0c-3.1-0.1-4.7-2.7-4.7-5.2c0-2.9,3.7-10.3,4.2-11.1l0.6-1.2l0.7,1.2
		c0.5,0.9,4.9,8.5,4.6,12.1C42.5,58.8,39.9,59.9,37.6,59.9z M37.5,45.4c-1.3,2.7-3.4,7.4-3.4,9.2c0,1.8,1,3.7,3.3,3.8
		c1.3,0,3.6-0.3,3.8-3C41.5,53.2,39.1,48.2,37.5,45.4z"/>
	<g>
		<path class="st1" d="M66.3,45.9c0.1,0.3,0.2,0.8,0.2,1.4c0,0.5-0.1,1.1-0.2,1.4h-2.9v4.1c0,1,0.3,1.6,1.5,1.6c0.7,0,1.3-0.1,2-0.6
			c0.1,0.9-0.2,2.2-0.7,2.8c-0.6,0.5-1.4,0.7-2.5,0.7c-2.7,0-3.5-1.6-3.5-4v-4.6h-1.7c0-0.9,0.2-2,0.4-2.7h1.2v-2.4
			c0.8-0.6,1.9-0.9,3.2-0.9v3.2H66.3z"/>
		<path class="st1" d="M72,52.4c0.1,1.5,1.2,2.3,3.4,2.3c1.4,0,2.6-0.3,3.4-0.7c0.1,0.8-0.3,1.9-0.8,2.5c-0.7,0.4-1.9,0.8-3.5,0.8
			c-3.8,0-5.9-2.2-5.9-5.7c0-3.7,2.2-6,5.6-6c3.2,0,4.7,2,4.7,4.9c0,0.7-0.1,1.5-0.3,2.1H72z M76,50.1c0.2-1.1-0.2-2.3-1.8-2.3
			c-1.4,0-2.2,0.9-2.3,2.3H76z"/>
		<path class="st1" d="M87.7,55.6c-0.5,1-1.5,1.6-3,1.6c-1.9,0-3.6-1-3.6-3.5c0-2.7,1.9-3.7,4.5-3.7c0.7,0,1.4,0.1,2,0.3V50
			c0-1.3-0.7-1.8-2.1-1.8c-1.3,0-2.5,0.3-3.5,0.9c-0.3-0.9-0.2-2.2,0.3-2.9c0.8-0.4,2.1-0.7,3.8-0.7c3.1,0,4.7,1.1,4.7,4.4v3.8
			c0,0.7,0.3,0.8,0.7,0.8c0.4,0,0.7-0.1,0.9-0.3c0.1,0.9-0.2,1.9-0.6,2.6c-0.5,0.3-1.1,0.5-1.8,0.5c-1.3,0-1.9-0.5-2.1-1.6H87.7z
			 M87.6,52.4c-0.4-0.2-0.9-0.3-1.4-0.3c-1.3,0-1.9,0.5-1.9,1.4c0,0.9,0.6,1.2,1.5,1.2c0.7,0,1.4-0.2,1.8-0.8V52.4z"/>
		<path class="st1" d="M100.3,45.5c0.4,0,0.8,0.1,1,0.2c0.3,0.5,0.5,1.2,0.5,2c0,0.6-0.1,1-0.2,1.3c-0.4-0.2-0.8-0.4-1.5-0.4
			c-1.1,0-1.9,0.8-2.4,1.9v6.1c-0.3,0.2-0.8,0.3-1.6,0.3c-0.8,0-1.3-0.1-1.6-0.3V46.2c0.6-0.3,1.5-0.5,2.6-0.5l0.2,2h0.2
			C97.8,46.5,98.5,45.5,100.3,45.5z"/>
		<path class="st1" d="M107,47.2c0.4-0.9,1.4-1.7,3-1.7c2.3,0,4.4,1.4,4.4,5.4c0,4.2-2.3,6.3-6.3,6.3c-1.6,0-3.2-0.3-4.3-0.8V41.1
			c0.7-0.4,1.8-0.6,3.2-0.6V44c0,1-0.1,2.3-0.2,3.2H107z M107.1,54.4c0.3,0.1,0.8,0.2,1.3,0.2c2.1,0,2.9-1.2,2.9-3.4
			c0-2-0.8-3-2.2-3c-1,0-1.6,0.5-2,1V54.4z"/>
		<path class="st1" d="M127.6,51.2c0,3.9-2.1,6.1-5.4,6.1c-3.5,0-5.4-2-5.4-6.1c0-3.6,2.2-5.7,5.4-5.7
			C125.5,45.5,127.6,47.4,127.6,51.2z M122.2,54.6c1.5,0,2.2-1.3,2.2-3.4c0-1.9-0.8-3.1-2.2-3.1c-1.5,0-2.2,1.2-2.2,3.1
			C120,53.3,120.7,54.6,122.2,54.6z"/>
		<path class="st1" d="M129.4,46.2c0.4-0.3,1-0.4,2-0.4c0.7,0,1.2,0.1,1.4,0.2l1.2,1.8c0.2,0.3,0.5,0.8,0.6,1.2h0.2
			c0.1-0.4,0.3-0.9,0.5-1.2l1.1-1.8c0.2-0.1,0.7-0.2,1.3-0.2c0.9,0,1.5,0.2,1.9,0.4l-3.2,5l3.7,5.4c-0.3,0.2-0.9,0.3-1.6,0.3
			c-0.8,0-1.6-0.1-1.9-0.3l-1.5-2.1c-0.3-0.4-0.5-0.8-0.6-1.2h-0.2c-0.1,0.4-0.3,0.8-0.6,1.2l-1.4,2.1c-0.3,0.2-1,0.3-1.9,0.3
			c-0.7,0-1.3-0.1-1.6-0.3l3.8-5.6L129.4,46.2z"/>
	</g>
</g>
</svg>
