<?xml version="1.0" encoding="utf-8"?>
<!-- Generator: Adobe Illustrator 21.1.0, SVG Export Plug-In . SVG Version: 6.00 Build 0)  -->
<svg version="1.1" id="Layer_1" xmlns="http://www.w3.org/2000/svg" xmlns:xlink="http://www.w3.org/1999/xlink" x="0px" y="0px"
	 viewBox="0 0 140.7 73.2" style="enable-background:new 0 0 140.7 73.2;" xml:space="preserve">
<style type="text/css">
	.st0{fill:#37444F;}
	.st1{fill:url(#SVGID_1_);}
	.st2{fill:#FFFFFF;}
	.st3{fill:url(#SVGID_2_);}
	.st4{fill:#265C7A;}
	.st5{fill:url(#SVGID_3_);}
	.st6{fill:#8C2B00;}
</style>
<g>
	<g>
		<path class="st0" d="M69.7,47.7c0.1,0.3,0.2,0.8,0.2,1.3s-0.1,1-0.2,1.3h-2.8v3.9c0,1,0.3,1.5,1.4,1.5c0.6,0,1.3-0.1,1.9-0.6
			c0.1,0.9-0.2,2.1-0.7,2.7c-0.6,0.4-1.3,0.7-2.4,0.7c-2.6,0-3.3-1.6-3.3-3.9v-4.4h-1.6c0-0.9,0.1-1.9,0.4-2.6h1.2v-2.3
			c0.8-0.5,1.9-0.8,3-0.8v3.1H69.7z"/>
		<path class="st0" d="M75.1,53.9c0.1,1.5,1.2,2.2,3.3,2.2c1.3,0,2.5-0.3,3.3-0.6c0.1,0.8-0.3,1.8-0.8,2.4c-0.7,0.4-1.9,0.7-3.3,0.7
			c-3.7,0-5.6-2.1-5.6-5.5c0-3.5,2.1-5.8,5.4-5.8c3.1,0,4.5,1.9,4.5,4.7c0,0.7-0.1,1.4-0.3,2H75.1z M79,51.7
			c0.2-1.1-0.2-2.2-1.7-2.2c-1.3,0-2.1,0.8-2.2,2.2H79z"/>
		<path class="st0" d="M90.3,57.1c-0.5,0.9-1.4,1.5-2.9,1.5c-1.8,0-3.4-0.9-3.4-3.4c0-2.6,1.8-3.5,4.3-3.5c0.7,0,1.3,0.1,1.9,0.3
			v-0.3c0-1.3-0.6-1.7-2-1.7c-1.2,0-2.4,0.3-3.4,0.9c-0.3-0.8-0.1-2.1,0.3-2.8c0.8-0.4,2.1-0.7,3.6-0.7c3,0,4.5,1.1,4.5,4.2v3.6
			c0,0.7,0.3,0.8,0.7,0.8c0.4,0,0.7-0.1,0.9-0.3c0.1,0.8-0.2,1.9-0.5,2.5c-0.4,0.3-1,0.5-1.7,0.5c-1.2,0-1.8-0.5-2.1-1.5H90.3z
			 M90.2,54c-0.4-0.2-0.9-0.3-1.4-0.3c-1.2,0-1.8,0.5-1.8,1.3c0,0.8,0.6,1.1,1.4,1.1c0.7,0,1.3-0.2,1.8-0.7V54z"/>
		<path class="st0" d="M102.5,47.3c0.4,0,0.7,0.1,1,0.2c0.3,0.5,0.4,1.1,0.4,1.9c0,0.6-0.1,1-0.2,1.3c-0.4-0.2-0.8-0.4-1.4-0.4
			c-1.1,0-1.9,0.7-2.3,1.8V58c-0.3,0.1-0.8,0.3-1.5,0.3s-1.2-0.1-1.5-0.3V48c0.6-0.3,1.4-0.5,2.5-0.5l0.2,1.9h0.2
			C100.1,48.3,100.7,47.3,102.5,47.3z"/>
		<path class="st0" d="M109,49c0.4-0.9,1.3-1.7,2.9-1.7c2.2,0,4.3,1.3,4.3,5.2c0,4-2.2,6.1-6,6.1c-1.5,0-3-0.3-4.2-0.8V43.1
			c0.7-0.4,1.7-0.6,3-0.6v3.4c0,0.9-0.1,2.2-0.2,3.1H109z M109,55.9c0.3,0.1,0.8,0.1,1.2,0.1c2,0,2.8-1.2,2.8-3.3
			c0-1.9-0.8-2.8-2.1-2.8c-1,0-1.5,0.4-1.9,1V55.9z"/>
		<path class="st0" d="M128.8,52.8c0,3.8-2,5.8-5.2,5.8c-3.4,0-5.2-1.9-5.2-5.8c0-3.4,2.1-5.5,5.2-5.5
			C126.7,47.3,128.8,49.2,128.8,52.8z M123.6,56.1c1.4,0,2.1-1.2,2.1-3.3c0-1.8-0.8-3-2.1-3c-1.4,0-2.1,1.2-2.1,3
			C121.5,54.9,122.2,56.1,123.6,56.1z"/>
		<path class="st0" d="M130.5,48c0.4-0.3,1-0.4,1.9-0.4c0.7,0,1.1,0.1,1.3,0.2l1.1,1.7c0.2,0.3,0.5,0.8,0.6,1.2h0.2
			c0.1-0.4,0.3-0.8,0.5-1.2l1-1.7c0.2-0.1,0.6-0.2,1.3-0.2c0.9,0,1.5,0.2,1.8,0.4l-3.1,4.8l3.6,5.2c-0.3,0.2-0.9,0.3-1.6,0.3
			c-0.8,0-1.5-0.1-1.8-0.3L136,56c-0.3-0.4-0.5-0.8-0.6-1.2h-0.2c-0.1,0.4-0.3,0.8-0.6,1.2l-1.4,2.1c-0.3,0.1-1,0.3-1.8,0.3
			c-0.7,0-1.2-0.1-1.5-0.3l3.7-5.4L130.5,48z"/>
	</g>
	<linearGradient id="SVGID_1_" gradientUnits="userSpaceOnUse" x1="11.4049" y1="36.3174" x2="55.0781" y2="36.3174">
		<stop  offset="0" style="stop-color:#FFE2BD"/>
		<stop  offset="0.2203" style="stop-color:#FEDEB9"/>
		<stop  offset="0.4587" style="stop-color:#FDD4AC"/>
		<stop  offset="0.7056" style="stop-color:#FAC296"/>
		<stop  offset="0.9569" style="stop-color:#F6A978"/>
		<stop  offset="1" style="stop-color:#F5A472"/>
	</linearGradient>
	<path class="st1" d="M32.4,17.1L15.8,29.4l0.4,7.8c0,0-2.4-0.3-3.6,0.7c-0.8,0.7-1.3,2.1-1.2,3.3c0.1,1.7,1.7,3.2,2.7,3.8
		c1.2,0.7,3.2,0.6,3.2,0.6s0.4,2,0.6,2.5c0.7,1.3,13.1,7.4,14.8,7.4c2.4,0,15-6.2,16.1-7.1c0.5-0.4,0.6-2.5,0.6-2.5s2.1,0.2,3.4-0.6
		c1-0.6,2.3-2.2,2.2-4c0-0.7-0.5-2-1.3-2.6c-0.7-0.5-3.2-1.1-3.2-1.1l0.2-9.3L32.4,17.1z"/>
	<path class="st0" d="M32.9,56.3c-1.4,0-7.1-2.7-8.2-3.3c-3.1-1.5-6.9-3.5-7.4-4.5c-0.2-0.4-0.4-1.4-0.6-2.1c-0.8,0-2-0.2-2.9-0.7
		c-1.1-0.6-3-2.4-3.1-4.4c-0.1-1.5,0.5-3,1.4-3.9c0.9-0.8,2.3-1,3.3-1l-0.4-7.3l17.4-12.9L51.7,28l-0.2,9.1c0.8,0.2,2.2,0.6,2.8,1
		c1.1,0.8,1.6,2.4,1.7,3.2c0.1,2-1.3,3.9-2.6,4.7c-1,0.6-2.3,0.7-3.1,0.7c-0.1,0.8-0.3,1.8-0.8,2.3C48.4,50.1,35.6,56.3,32.9,56.3z
		 M18.8,47.8c0.9,1.2,12.6,6.9,14.2,7c2,0,14.4-5.9,15.5-6.9c0.1-0.2,0.3-1.2,0.3-2l0-0.8l0.8,0.1c0.5,0.1,2,0.1,2.9-0.5
		c0.8-0.5,1.9-1.8,1.8-3.2c0-0.6-0.4-1.6-1-2c-0.3-0.2-1.8-0.7-2.9-1l-0.6-0.1l0.2-9.5L32.5,18L16.7,29.8l0.4,8.3L16.2,38
		c-0.5-0.1-2.2-0.1-2.9,0.5c-0.6,0.6-1,1.7-0.9,2.6c0.1,1.3,1.4,2.6,2.3,3.2c0.8,0.5,2.3,0.6,2.8,0.5l0.7,0l0.1,0.7
		C18.4,46.4,18.7,47.6,18.8,47.8z M48.5,47.9L48.5,47.9L48.5,47.9z"/>
	<polygon class="st2" points="32.8,60 19.4,53.7 19.7,65.5 33.2,72.3 46.8,65.7 47.1,53.9 	"/>
	<path class="st0" d="M33.2,73.2L19,66l-0.4-13.6l14.2,6.8l15.1-6.4l-0.4,13.5L33.2,73.2z M20.5,65l12.7,6.4L46,65.2l0.3-10.1
		l-13.5,5.8l-12.5-6L20.5,65z"/>
	<polygon class="st2" points="18.6,53 14.1,58.1 29.7,66.2 32.4,60 	"/>
	<path class="st0" d="M30.1,67.1l-17.1-8.9l5.5-6.2l14.8,7.5L30.1,67.1z M15.2,57.9l14.2,7.4l2.1-4.9l-12.7-6.5L15.2,57.9z"/>
	<polygon class="st2" points="33.1,60 35.9,66.2 50.7,58.8 47.6,53.5 	"/>
	<path class="st0" d="M35.6,67.1l-3.4-7.4l15.7-7.1l3.8,6.5L35.6,67.1z M34,60.4l2.2,4.8l13.5-6.7l-2.4-4.2L34,60.4z"/>
	
		<ellipse transform="matrix(5.822291e-02 -0.9983 0.9983 5.822291e-02 -17.2487 61.2996)" class="st2" cx="23.9" cy="39.8" rx="3.2" ry="3.2"/>
	<path class="st0" d="M23.9,43.8c-0.1,0-0.2,0-0.2,0c-2.2-0.1-3.9-2-3.7-4.2c0.1-2.2,2-3.9,4.2-3.7c1.1,0.1,2,0.5,2.7,1.3
		c0.7,0.8,1.1,1.8,1,2.9c-0.1,1.1-0.5,2-1.3,2.7C25.8,43.4,24.8,43.8,23.9,43.8z M23.9,37.4c-1.3,0-2.3,1-2.4,2.3
		c-0.1,1.3,0.9,2.5,2.3,2.5c0.6,0,1.3-0.2,1.7-0.6c0.5-0.4,0.8-1,0.8-1.7l0,0c0-0.6-0.2-1.3-0.6-1.7c-0.4-0.5-1-0.8-1.7-0.8
		C24,37.4,23.9,37.4,23.9,37.4z"/>
	
		<ellipse transform="matrix(5.822291e-02 -0.9983 0.9983 5.822291e-02 -1.4847 76.7762)" class="st2" cx="39.9" cy="39.2" rx="3.2" ry="3.2"/>
	<path class="st0" d="M40,43.2c-0.1,0-0.2,0-0.2,0c-1.1-0.1-2-0.5-2.7-1.3c-0.7-0.8-1.1-1.8-1-2.9c0.1-1.1,0.5-2,1.3-2.7
		c0.8-0.7,1.8-1.1,2.9-1c1.1,0.1,2,0.5,2.7,1.3c0.7,0.8,1.1,1.8,1,2.9l-0.8,0l0.8,0c-0.1,1.1-0.5,2-1.3,2.7
		C41.9,42.8,40.9,43.2,40,43.2z M39.9,36.8c-0.6,0-1.2,0.2-1.6,0.6c-0.5,0.4-0.8,1-0.8,1.7c0,0.6,0.2,1.3,0.6,1.7
		c0.4,0.5,1,0.8,1.7,0.8c0.6,0,1.3-0.2,1.7-0.6s0.8-1,0.8-1.7l0,0c0-0.6-0.2-1.3-0.6-1.7c-0.4-0.5-1-0.8-1.7-0.8
		C40,36.8,40,36.8,39.9,36.8z"/>
	<path class="st0" d="M30.4,49.3c-0.2,0.1-1.3-0.4-1.3-0.6c-0.1-0.3,1.1-2.3,3.3-2.3c2.6,0,3.6,2.1,3.5,2.4
		c-0.1,0.3-1.2,0.6-1.5,0.6c-0.2-0.1-0.6-1.3-2-1.3C31.2,47.9,30.7,49.2,30.4,49.3z"/>
	<linearGradient id="SVGID_2_" gradientUnits="userSpaceOnUse" x1="40.9334" y1="44.6922" x2="40.9334" y2="60.1571">
		<stop  offset="0" style="stop-color:#29C8E2"/>
		<stop  offset="0.2409" style="stop-color:#29C4E1"/>
		<stop  offset="0.4546" style="stop-color:#29BADD"/>
		<stop  offset="0.658" style="stop-color:#29A8D6"/>
		<stop  offset="0.8538" style="stop-color:#298ECD"/>
		<stop  offset="1" style="stop-color:#2976C4"/>
	</linearGradient>
	<path class="st3" d="M40,44.7c0,0-3.6,8.3-3.4,11.2c0.1,2.4,1.7,4.4,4.3,4.3c2-0.1,4.3-1,4.4-4.1C45.4,52.6,40,44.7,40,44.7z"/>
	<path class="st4" d="M40.7,60.9c-3,0-4.7-2.4-4.8-4.9c-0.2-3,3.3-11.2,3.4-11.5l0.5-1.2l0.7,1.1c0.2,0.3,5.6,8.2,5.5,11.8
		c-0.1,3.3-2.7,4.6-5.1,4.7C40.9,60.9,40.8,60.9,40.7,60.9z M40.1,46.2c-1.1,2.8-2.9,7.8-2.8,9.7c0.1,1.8,1.2,3.6,3.4,3.6
		c0.1,0,0.1,0,0.2,0c1.4-0.1,3.7-0.6,3.7-3.4C44.7,53.8,41.8,48.9,40.1,46.2z"/>
	<g>
		<g>
			<line class="st0" x1="32.8" y1="60" x2="33.2" y2="72.6"/>
			
				<rect x="32.3" y="60" transform="matrix(0.9994 -3.575869e-02 3.575869e-02 0.9994 -2.3505 1.2231)" class="st0" width="1.4" height="12.6"/>
		</g>
	</g>
	<linearGradient id="SVGID_3_" gradientUnits="userSpaceOnUse" x1="34.3026" y1="45.5578" x2="34.3026" y2="0.7852">
		<stop  offset="0" style="stop-color:#982323"/>
		<stop  offset="0.6533" style="stop-color:#D03323"/>
		<stop  offset="1" style="stop-color:#EF3C23"/>
	</linearGradient>
	<path class="st5" d="M11,37.1l-0.5,0.6l-1.2,1.5L8,36.7l-7.2-6.8l9.7-6.4l-2.3-4l4.3,0.3L6.9,4.4c0,0,12.1-0.2,16.1,0.4
		c2.1,0.3,8.1,2.3,8.1,2.3l-0.7-6.3c0,0,6.2,5,7.7,7.1c0.5,0.7,1.5,3.4,1.5,3.4l3.2-1.4c0,0,3.2,2.2,4.3,2.7
		C50,13.8,59,16.1,59,16.1l-7.1,3.1c0,0,6.7,6.4,9.4,7.9c1.5,0.8,6.6,2.2,6.6,2.2s-4.5,4-6.1,5.1c-1.3,0.9-5.4,3-5.4,3L55.4,41
		l-2.6-3.1l-7.6,6.3c0,0,0.8-5.3,0.8-7.1c0-1.7-0.9-6.7-0.9-6.7l-5.3,6l0.5-7.9c0,0-3.3,5.1-4.6,6.7c-1.4,1.8-6.1,6.8-6.1,6.8
		s-1.7-3.9-2.1-5.3c-0.4-1.4-0.8-5.9-0.8-5.9L24.8,35c0,0-0.3-2.7,0-4.3c0.1-0.8,0.4-2.5,0.4-2.5s-4,4.2-5.2,6
		c-0.6,0.8-1.8,3.5-1.8,3.5L16.9,34c0,0,0,4.3,0.2,5.8c0.2,1.5,0.6,5.8,0.6,5.8l-3.9-4.3L11,37.1z"/>
	<path class="st6" d="M68.6,29.1c-0.1-0.3-0.3-0.5-0.6-0.6c-1.4-0.4-5.2-1.5-6.4-2.1c-2-1.1-6.5-5.2-8.4-7l6-2.6
		c0.3-0.1,0.5-0.4,0.5-0.8c0-0.3-0.3-0.6-0.6-0.7c-0.1,0-9-2.3-11.7-3.5c-0.9-0.4-3.3-2-4.2-2.6C43.1,9,42.8,9,42.5,9.1l-2.5,1.1
		c-0.3-0.9-0.9-2.2-1.3-2.8c-1.6-2.2-7.6-7.1-7.8-7.3c-0.2-0.2-0.6-0.2-0.9-0.1c-0.3,0.2-0.4,0.5-0.4,0.8L30.2,6
		c-1.9-0.6-5.5-1.7-7.1-1.9c-4-0.6-15.7-0.4-16.2-0.4C6.6,3.6,6.4,3.8,6.2,4C6.1,4.2,6,4.5,6.1,4.7l5.2,14.2l-3.1-0.2
		c-0.3,0-0.6,0.1-0.7,0.4c-0.2,0.2-0.2,0.6,0,0.8l2,3.4l-9.1,6C0.2,29.4,0,29.6,0,29.8c0,0.2,0.1,0.5,0.2,0.6l7.3,6.8l1.1,2.3
		c0.1,0.2,0.4,0.4,0.6,0.4c0.3,0,0.5-0.1,0.7-0.3l1-1.2l2.2,3.3c0,0,0,0.1,0.1,0.1l3.9,4.3c0.2,0.2,0.4,0.3,0.6,0.3
		c0.1,0,0.2,0,0.3-0.1c0.3-0.1,0.5-0.5,0.5-0.8c0-0.2-0.4-4.3-0.6-5.8c0-0.3-0.2-1.2-0.2-1.7c0.1,0.1,0.5,0.4,0.6,0.4
		c0.3,0,0.5,0,0.6-0.3c0.3-0.7,1.3-2.8,1.7-3.4c0.7-0.9,2.2-2.6,3.4-4c-0.3,1.7,0,4.3,0,4.4c0,0.4,0.3,0.6,0.7,0.7
		c0.4,0.1,0.7-0.1,0.8-0.5l0.7-1.7c0.1,1.2,0.3,2.5,0.5,3.1c0.4,1.4,2.1,5.3,2.1,5.4c0.1,0.2,0.3,0.4,0.6,0.5c0.3,0,0.5,0,0.7-0.2
		c0.2-0.2,4.7-5,6.1-6.8c0.7-0.9,2-2.7,3-4.3l-0.3,5c0,0.3,0.2,0.6,0.5,0.8c0.3,0.1,0.7,0,0.9-0.2l4.2-4.8c0.3,1.6,0.6,4,0.6,5
		c0,1.7-0.8,6.9-0.8,7c-0.1,0.3,0.1,0.6,0.4,0.8c0.3,0.2,0.6,0.1,0.9-0.1l7-5.8l2.1,2.5c0.2,0.2,0.5,0.3,0.8,0.3
		c0.3-0.1,0.5-0.3,0.6-0.6l0.8-3.3c1-0.5,4.1-2.1,5.2-2.8c1.7-1.1,6-5,6.2-5.2C68.6,29.7,68.7,29.4,68.6,29.1z M61.3,33.8
		c-1.2,0.8-5.3,2.9-5.3,2.9c-0.2,0.1-0.4,0.3-0.4,0.5L55,39.3l-1.6-1.9c-0.3-0.3-0.8-0.4-1.1-0.1l-6,5c0.2-1.7,0.5-4.1,0.5-5.2
		c0-1.7-0.9-6.7-0.9-6.9c-0.1-0.3-0.3-0.5-0.6-0.6c-0.3-0.1-0.6,0-0.8,0.2l-3.8,4.3l0.3-5.7c0-0.4-0.2-0.7-0.5-0.8
		c-0.3-0.1-0.7,0-0.9,0.3c0,0.1-3.3,5.1-4.5,6.6c-1,1.3-3.8,4.3-5.2,5.8c-0.5-1.2-1.4-3.2-1.6-4.1c-0.4-1.4-0.8-5.7-0.8-5.8
		c0-0.4-0.3-0.6-0.7-0.7c-0.4-0.1-0.7,0.1-0.8,0.5l-0.5,1.2c0-0.2,0-0.5,0.1-0.7c0.1-0.6,0.3-1.7,0.4-2.2c0.4-2,2.7-6.2,2.7-6.2
		c0.2-0.4,0-0.9-0.4-1c-0.4-0.2-0.9,0-1,0.4c0,0-1.9,4.6-2.5,5.8c-0.5,1-4,4.3-5.3,6.1c-0.3,0.4-0.7,1.2-1,1.9c0,0-0.6-1.4-0.7-1.9
		c0-0.6,1.1-7.9,1.1-7.9c0.1-0.4-0.2-0.8-0.7-0.9c-0.3-0.1-0.8,0.2-0.9,0.7c0,0-1,5.9-1.1,7.9c-0.1,1.6,0.1,5,0.3,6.4
		c0.1,0.8,0.2,2.2,0.4,3.5l-2.3-2.5L12,37.2l2.3-2.6c0.3-0.3,0.3-0.8-0.1-1.1c-0.3-0.3-0.8-0.3-1.1,0.1l-2.6,3c0,0-0.1,0-0.1,0.1
		l-0.5,0.6c0,0,0,0,0,0l-0.4,0.5c0,0-0.5-0.7-0.5-0.9c-0.1-1.2,0.7-3.9,1-5.1c0.1-0.4,0.3-1.1,0.5-1.4c0.4-0.7,1.8-2.7,1.8-2.7
		c0.2-0.4,0.1-0.8-0.2-1.1c-0.4-0.2-0.8-0.1-1.1,0.2c0,0-1.9,2.4-2.3,3.6c-0.5,1.5-0.9,5-0.9,5L2,30l8.9-5.9c0.3-0.2,0.5-0.7,0.2-1
		l-1.6-2.7l2.8,0.2c0.3,0,0.5-0.1,0.7-0.3c0.2-0.2,0.2-0.5,0.1-0.7L8,5.2c3.1,0,11.7-0.1,14.9,0.4c2,0.3,8,2.2,8,2.2
		c0.3,0.1,0.5,0,0.7-0.1c0.2-0.2,0.3-0.4,0.3-0.7l-0.5-4.4c1.9,1.6,5.1,4.4,6.1,5.8c0.3,0.5,1,2.2,1.4,3.2c0.1,0.2,0.2,0.4,0.4,0.5
		c0.2,0.1,0.4,0.1,0.6,0l2.8-1.3c0.9,0.6,3.1,2.1,4.1,2.5c2,0.9,6.9,2.3,9.7,3l-5,2.2c-0.2,0.1-0.4,0.3-0.5,0.6c0,0.3,0,0.5,0.2,0.7
		c0.3,0.3,6.8,6.5,9.5,8c1.1,0.6,3.7,1.4,5.4,1.9C64.8,30.9,62.4,33,61.3,33.8z"/>
</g>
</svg>
