<?xml version="1.0" encoding="utf-8"?>
<!-- Generator: Adobe Illustrator 21.1.0, SVG Export Plug-In . SVG Version: 6.00 Build 0)  -->
<svg version="1.1" id="Layer_1" xmlns="http://www.w3.org/2000/svg" xmlns:xlink="http://www.w3.org/1999/xlink" x="0px" y="0px"
	 viewBox="0 0 205.8 234.3" style="enable-background:new 0 0 205.8 234.3;" xml:space="preserve">
<style type="text/css">
	.st0{fill:#FFFFFF;}
	.st1{fill:#37444F;}
</style>
<g>
	<g>
		<polygon class="st0" points="55.2,165.4 55.2,210.9 102.8,232.8 150.4,210.9 150.4,165.4 102.8,187.2 		"/>
		<g>
			<polygon class="st1" points="56.2,170.4 54.2,170.4 54.2,163.8 60.1,166.6 59.3,168.4 56.2,167 			"/>
			<path class="st1" d="M56.2,203.4h-2v-8.5h2V203.4z M56.2,192.4h-2v-8.5h2V192.4z M56.2,181.4h-2v-8.5h2V181.4z"/>
			<polygon class="st1" points="59.3,213.9 54.2,211.6 54.2,205.9 56.2,205.9 56.2,210.3 60.1,212.1 			"/>
			<path class="st1" d="M95.1,230.3l-9.2-4.2l0.8-1.8l9.2,4.2L95.1,230.3z M83.1,224.9l-9.2-4.2l0.8-1.8L84,223L83.1,224.9z
				 M71.2,219.4l-9.2-4.2l0.8-1.8l9.2,4.2L71.2,219.4z"/>
			<polygon class="st1" points="102.8,233.9 97.8,231.6 98.6,229.8 102.8,231.7 106.9,229.8 107.7,231.6 			"/>
			<path class="st1" d="M110.5,230.3l-0.8-1.8l9.2-4.2l0.8,1.8L110.5,230.3z M122.4,224.9l-0.8-1.8l9.2-4.2l0.8,1.8L122.4,224.9z
				 M134.3,219.4l-0.8-1.8l9.2-4.2l0.8,1.8L134.3,219.4z"/>
			<polygon class="st1" points="146.3,213.9 145.4,212.1 149.4,210.3 149.4,205.9 151.4,205.9 151.4,211.6 			"/>
			<path class="st1" d="M151.4,203.4h-2v-8.5h2V203.4z M151.4,192.4h-2v-8.5h2V192.4z M151.4,181.4h-2v-8.5h2V181.4z"/>
			<polygon class="st1" points="151.4,170.4 149.4,170.4 149.4,167 146.3,168.4 145.4,166.6 151.4,163.8 			"/>
			<path class="st1" d="M110.5,184.8l-0.8-1.8l9.2-4.2l0.8,1.8L110.5,184.8z M122.4,179.3l-0.8-1.8l9.2-4.2l0.8,1.8L122.4,179.3z
				 M134.3,173.9l-0.8-1.8l9.2-4.2l0.8,1.8L134.3,173.9z"/>
			<polygon class="st1" points="102.8,188.3 97.8,186.1 98.6,184.2 102.8,186.1 106.9,184.2 107.7,186.1 			"/>
			<path class="st1" d="M95.1,184.8l-9.2-4.2l0.8-1.8l9.2,4.2L95.1,184.8z M83.1,179.3l-9.2-4.2l0.8-1.8l9.2,4.2L83.1,179.3z
				 M71.2,173.9l-9.2-4.2l0.8-1.8l9.2,4.2L71.2,173.9z"/>
		</g>
	</g>
	<g>
		<line class="st0" x1="102.8" y1="187.2" x2="102.8" y2="232.8"/>
		<g>
			<rect x="101.8" y="187.2" class="st1" width="2" height="5"/>
			<path class="st1" d="M103.8,225.2h-2v-8.5h2V225.2z M103.8,214.2h-2v-8.5h2V214.2z M103.8,203.2h-2v-8.5h2V203.2z"/>
			<rect x="101.8" y="227.8" class="st1" width="2" height="5"/>
		</g>
	</g>
	<g>
		<polygon class="st0" points="87,204.2 37,181.4 52.9,164.2 102.9,187 		"/>
		<g>
			<polygon class="st1" points="87.2,205.5 82,203.1 82.9,201.3 86.8,203 89.7,199.9 91.1,201.3 			"/>
			<path class="st1" d="M79.1,201.7l-9.7-4.5l0.8-1.8l9.7,4.5L79.1,201.7z M66.4,196l-9.7-4.5l0.8-1.8l9.7,4.5L66.4,196z
				 M53.8,190.2l-9.7-4.5l0.8-1.8l9.7,4.5L53.8,190.2z"/>
			<polygon class="st1" points="41.1,184.4 35.3,181.7 39.6,177 41.1,178.4 38.7,181 41.9,182.6 			"/>
			
				<rect x="40.7" y="171.8" transform="matrix(0.678 -0.7351 0.7351 0.678 -112.5413 88.6656)" class="st1" width="8.4" height="2"/>
			<polygon class="st1" points="50.2,168.5 48.7,167.2 52.6,163 57.8,165.3 57,167.2 53.1,165.4 			"/>
			<path class="st1" d="M95,184.5l-9.7-4.5l0.8-1.8l9.7,4.5L95,184.5z M82.3,178.7l-9.7-4.5l0.8-1.8l9.7,4.5L82.3,178.7z
				 M69.7,172.9l-9.7-4.5l0.8-1.8l9.7,4.5L69.7,172.9z"/>
			<polygon class="st1" points="100.2,191.4 98.8,190 101.2,187.4 97.9,185.9 98.8,184 104.6,186.7 			"/>
			
				<rect x="90.7" y="194.6" transform="matrix(0.678 -0.7351 0.7351 0.678 -113.2388 132.7982)" class="st1" width="8.4" height="2"/>
		</g>
	</g>
	<g>
		<polygon class="st0" points="118.7,204.2 168.7,181.4 152.8,164.2 102.8,187 		"/>
		<g>
			<polygon class="st1" points="118.4,205.5 114.5,201.3 116,199.9 118.9,203 122.8,201.3 123.6,203.1 			"/>
			<path class="st1" d="M126.5,201.7l-0.8-1.8l9.7-4.5l0.8,1.8L126.5,201.7z M139.2,196l-0.8-1.8l9.7-4.5l0.8,1.8L139.2,196z
				 M151.9,190.2l-0.8-1.8l9.7-4.5l0.8,1.8L151.9,190.2z"/>
			<polygon class="st1" points="164.5,184.4 163.7,182.6 167,181 164.6,178.4 166,177 170.3,181.7 			"/>
			
				<rect x="159.7" y="168.6" transform="matrix(0.735 -0.6781 0.6781 0.735 -74.5592 154.7798)" class="st1" width="2" height="8.4"/>
			<polygon class="st1" points="155.5,168.5 152.6,165.4 148.7,167.2 147.8,165.3 153,163 156.9,167.2 			"/>
			<path class="st1" d="M110.7,184.5l-0.8-1.8l9.7-4.5l0.8,1.8L110.7,184.5z M123.3,178.7l-0.8-1.8l9.7-4.5l0.8,1.8L123.3,178.7z
				 M136,172.9l-0.8-1.8l9.7-4.5l0.8,1.8L136,172.9z"/>
			<polygon class="st1" points="105.4,191.4 101.1,186.7 106.9,184 107.7,185.9 104.4,187.4 106.9,190 			"/>
			
				<rect x="109.7" y="191.4" transform="matrix(0.735 -0.6781 0.6781 0.735 -103.3173 126.9211)" class="st1" width="2" height="8.4"/>
		</g>
	</g>
</g>
<path class="st1" d="M103,173.7c-0.6,0-1.5-0.2-2.6-0.5l0.6-1.9c1.3,0.4,1.8,0.4,2.1,0.4c0.9,0,2.7-0.4,6.9-2.1l0.8,1.8
	C107,173,104.5,173.7,103,173.7z M97.5,172.2c-2.5-0.9-5.7-2.2-9.3-3.9l0.8-1.8c3.6,1.6,6.8,2.9,9.2,3.8L97.5,172.2z M113.4,170.2
	l-0.8-1.8c2.6-1.2,5.6-2.7,9-4.4l0.9,1.8C119.1,167.6,116.1,169.1,113.4,170.2z M85.4,167.1c-3-1.4-6-2.8-9.1-4.3l0.9-1.8
	c3,1.5,6.1,2.9,9,4.3L85.4,167.1z M125.2,164.4l-0.9-1.8c2.8-1.5,5.8-3.1,8.8-4.8l1,1.7C131,161.3,128,162.9,125.2,164.4z
	 M73.6,161.4c-3.2-1.6-6.2-3.2-8.9-4.7l1-1.8c2.6,1.5,5.6,3,8.8,4.6L73.6,161.4z M136.6,158.1l-1-1.7c3.1-1.8,6.1-3.6,8.6-5.1
	l1.1,1.7C142.7,154.5,139.7,156.3,136.6,158.1z M62.1,155.3c-7.4-4.3-8.1-5.5-8.3-6c0-0.1-0.1-0.2-0.1-0.3l1.8-0.8
	c0,0.1,0,0.1,0.1,0.2c0.1,0.2,1,1.4,7.6,5.2L62.1,155.3z M147.8,151.3l-1.1-1.7c2.2-1.4,2.9-2,3.2-2.2c0.4-0.3,0.9-1.9,1.3-5.1
	l2,0.2c-0.5,5.1-1.6,6-1.9,6.3C150.7,149.4,149.5,150.2,147.8,151.3z M52.7,145.9c-0.4-1.5-0.7-3.1-0.8-4c-1,0-2.7-0.1-4.5-0.4
	l0.3-2c2.2,0.4,4.2,0.4,4.8,0.4l1,0l0.2,0.8c0,0,0.5,2.5,1,4.7L52.7,145.9z M154.4,141.5c-0.5,0-0.8,0-1.2,0l0.1-2
	c0.3,0,0.7,0,1.1,0c1.9,0,5.5-0.2,8-1.7l1.1,1.7l-0.1,0.1C160.6,141.2,157,141.5,154.4,141.5z M44.3,140.7c-0.8-0.3-1.4-0.6-2-0.9
	c-1.7-0.9-4.2-2.9-6.1-5.6l1.6-1.2c1.8,2.5,4.1,4.3,5.5,5.1c0.5,0.3,1.1,0.5,1.7,0.8L44.3,140.7z M166,137.5l-1.4-1.4
	c1.1-1.1,3.7-4.1,4.1-8.2l2,0.2C170.3,131.4,168.6,134.8,166,137.5z M34.5,131.5c-0.7-1.4-1-2.8-1.1-4.2c0-0.3,0-0.6,0-0.9
	c0-1.8,0.4-3.7,1-5.4l1.9,0.7c-0.6,1.5-0.9,3.1-0.9,4.7c0,0.3,0,0.5,0,0.8c0.1,1.1,0.4,2.3,1,3.5L34.5,131.5z M168.5,125.2
	c-0.4-1.9-1.6-4.6-3.5-6c-0.2-0.2-0.7-0.4-1.7-0.8l0.7-1.9c0.9,0.4,1.6,0.7,2.1,1.1c2.4,1.7,3.8,4.9,4.3,7.2L168.5,125.2z
	 M37.4,119.2l-1.6-1.1c0.5-0.7,1-1.2,1.5-1.7c2.2-2,5.6-2.6,8-2.7l0.1,2c-2.1,0.1-5,0.5-6.8,2.2C38.2,118.2,37.8,118.7,37.4,119.2z
	 M160.5,117.4c-2.2-0.7-4.4-1.2-5-1.4l-0.7-0.5l-0.1-0.2l0.1-5l2,0l-0.1,3.9c1,0.3,2.7,0.7,4.4,1.2L160.5,117.4z M50.1,116l-1.2-0.2
	c0,0-0.3,0-0.7-0.1l0.1-0.9l-0.3,0l-0.5-9.3l2-0.1L50.1,116z M156.9,107.3l-2,0l0.2-10l2,0L156.9,107.3z M47.4,102.6l-0.6-10l2-0.1
	l0.6,10L47.4,102.6z M157.2,94.3l-2,0l0.1-5.2l-3.1-1.9l1-1.7l4.1,2.5L157.2,94.3z M50.1,91.2l-1.2-1.6l8-6l1.2,1.6L50.1,91.2z
	 M149.6,85.6l-8.5-5.2l1-1.7l8.5,5.2L149.6,85.6z M60.5,83.5l-1.2-1.6l8-6l1.2,1.6L60.5,83.5z M138.5,78.8l-8.5-5.2l1-1.7l8.5,5.2
	L138.5,78.8z M71,75.7l-1.2-1.6l8-6l1.2,1.6L71,75.7z M127.5,72l-8.5-5.2l1-1.7l8.5,5.2L127.5,72z M81.4,67.9l-1.2-1.6l8-6l1.2,1.6
	L81.4,67.9z M116.4,65.1l-8.5-5.2l1-1.7l8.5,5.2L116.4,65.1z M91.8,60.2l-1.2-1.6l8.6-6.4l7.2,4.4l-1,1.7l-6.1-3.7L91.8,60.2z"/>
<g>
	<path class="st0" d="M31.8,107.5L3.5,89.9l33.3-31c0,0-0.6-7.4-3.9-17.3c-4.7-14.1-13.1-29.1-13.1-29.1s24.7-1.9,44.3,0.7
		c11.8,1.5,29.3,7.5,29.3,7.5L91.4,2.3c0,0,13.9,6.1,19.9,15.7c7,11.2,8.2,17.7,8.2,17.7l19.4-10.1c0,0,6.8,4.5,13.6,8.2
		c14.1,7.6,24.8,10.2,24.8,10.2l-17.9,9.4c0,0,10.1,12.7,22.7,23c7.9,6.5,20.6,11.4,20.6,11.4s-7.7,7.3-15.3,14.6
		c-17.9,17.2-50.9,30.8-50.9,30.8s2.1-12.9,2.1-17.3c-0.1-5.8-3.4-22.9-3.4-22.9l-15.7,14.6l1.8-22.8c0,0-7.2,11.9-10.6,16.5
		c-5.5,7.4-10.3,11.3-15,16.1c-4.6,4.8-7.6,9.3-7.6,9.3s-8.9-5.8-10.8-25.6c-2.3-23.6,3-37,3-37L61.4,99.9L54,80.5l-1.6,52.6
		c0,0-17.4-16.2-23.2-33.3C27.1,93.4,27,84.9,27,84.9"/>
	<g>
		<rect x="28.7" y="103.7" transform="matrix(0.527 -0.8499 0.8499 0.527 -76.2063 75.4875)" class="st1" width="2" height="5"/>
		<path class="st1" d="M25,104.5l-6.9-4.3l1.1-1.7l6.9,4.3L25,104.5z M16.1,98.9l-6.9-4.2l1.1-1.7l6.9,4.2L16.1,98.9z"/>
		<polygon class="st1" points="7.2,93.4 1.8,90.1 6.4,85.8 7.8,87.3 5.1,89.8 8.2,91.7 		"/>
		<path class="st1" d="M9.7,85.5l-1.4-1.5l6.2-5.8l1.4,1.5L9.7,85.5z M17.7,78l-1.4-1.5l6.2-5.8l1.4,1.5L17.7,78z M25.7,70.6
			l-1.4-1.5l6.2-5.8l1.4,1.5L25.7,70.6z"/>
		<path class="st1" d="M33.8,63.1l-1.4-1.5l3.3-3.1c-0.1-0.7-0.3-2.3-0.7-4.4l2-0.4c0.6,3.1,0.7,5,0.7,5l0,0.5L33.8,63.1z"/>
		<path class="st1" d="M34.5,51.4c-0.7-3-1.5-6.1-2.5-9l1.9-0.6c1,3,1.8,6.1,2.5,9.2L34.5,51.4z M31.1,39.7c-1-2.7-2.1-5.7-3.5-8.7
			l1.8-0.8c1.3,3.1,2.5,6.1,3.5,8.9L31.1,39.7z M26.5,28.4c-1.2-2.8-2.6-5.6-4-8.5l1.8-0.9c1.5,2.9,2.8,5.8,4.1,8.6L26.5,28.4z"/>
		<path class="st1" d="M21.2,17.4c-1.4-2.7-2.3-4.4-2.3-4.4l-0.8-1.4l1.6-0.1c0,0,1.9-0.1,5-0.3l0.1,2c-1.4,0.1-2.6,0.1-3.4,0.2
			c0.4,0.8,1,1.8,1.6,3.1L21.2,17.4z"/>
		<path class="st1" d="M85.5,19.3c-3.2-1-6.2-1.8-9.1-2.5l0.5-1.9c2.9,0.7,6,1.6,9.2,2.6L85.5,19.3z M73.6,16.1
			c-3.5-0.8-6.6-1.4-9.2-1.8l0.3-2c2.7,0.4,5.9,1,9.4,1.8L73.6,16.1z M61.6,13.9c-2.9-0.3-6.1-0.6-9.4-0.7l0.1-2
			c3.4,0.2,6.6,0.4,9.5,0.8L61.6,13.9z M27.6,13.1l-0.1-2c3.2-0.1,6.4-0.2,9.5-0.2l0,2C33.9,12.9,30.8,13,27.6,13.1z M49.4,13
			c-3-0.1-6.2-0.2-9.5-0.2l0-2c3.3,0,6.5,0.1,9.5,0.2L49.4,13z"/>
		<path class="st1" d="M94.4,22.1l-1.5-0.5c0,0-1.8-0.6-4.7-1.5l0.6-1.9c1.4,0.4,2.5,0.8,3.3,1.1l-0.4-3.4l2-0.2L94.4,22.1z"/>
		<rect x="91.3" y="8.8" transform="matrix(0.9947 -0.1028 0.1028 0.9947 -0.6922 9.5472)" class="st1" width="2" height="5.3"/>
		<path class="st1" d="M90.9,7.4l-0.7-6.7l1.6,0.7c0.1,0,1.9,0.8,4.5,2.3l-1,1.7c-1.1-0.6-2-1.1-2.8-1.5l0.3,3.2L90.9,7.4z"/>
		<path class="st1" d="M116,29c-1-2.3-2.3-4.8-3.8-7.4l1.7-1c1.5,2.6,2.8,5.2,3.9,7.6L116,29z M111,19.5c-0.2-0.3-0.4-0.6-0.6-1
			c-1.1-1.8-2.6-3.6-4.4-5.4l1.4-1.4c2,1.9,3.6,3.8,4.8,5.8c0.2,0.3,0.4,0.7,0.6,1L111,19.5z M104.1,11.5c-2-1.7-4.2-3.3-6.7-4.8
			l1-1.7c2.6,1.6,4.9,3.3,6.9,5L104.1,11.5z"/>
		<path class="st1" d="M118.7,37.2l-0.3-1.3c0,0-0.3-1.6-1.5-4.6l1.9-0.7c0.6,1.6,1,2.8,1.3,3.6l3.3-1.7l0.9,1.8L118.7,37.2z"/>
		<rect x="125.4" y="29.6" transform="matrix(0.8869 -0.462 0.462 0.8869 0.4602 63.1239)" class="st1" width="7.4" height="2"/>
		<path class="st1" d="M142.5,29.1c-1.7-1.1-3.1-1.9-3.7-2.4l-3.9,2l-0.9-1.8l5-2.6l0.5,0.3c0,0,1.7,1.1,4.2,2.7L142.5,29.1z"/>
		<path class="st1" d="M168.9,42.4c-3.5-1.3-7-2.8-10.5-4.4l0.9-1.8c3.5,1.6,6.9,3.1,10.3,4.4L168.9,42.4z M155.3,36.4
			c-1.1-0.6-2.2-1.1-3.4-1.7c-2-1.1-4.2-2.4-6.6-3.8l1-1.7c2.3,1.4,4.5,2.7,6.5,3.7c1.1,0.6,2.2,1.2,3.3,1.7L155.3,36.4z"/>
		<path class="st1" d="M173.3,47.2l-0.9-1.8l2.2-1.2c-0.7-0.2-1.5-0.5-2.4-0.8l0.6-1.9c2.9,1,4.7,1.4,4.7,1.4l2.5,0.6L173.3,47.2z"
			/>
		<rect x="165.1" y="47.7" transform="matrix(0.8851 -0.4655 0.4655 0.8851 -3.3425 83.928)" class="st1" width="6.4" height="2"/>
		<path class="st1" d="M161.8,57.9c-2-2.3-3.2-3.8-3.2-3.9l-0.8-0.9l5.5-2.9l0.9,1.8l-3.3,1.8c0.5,0.7,1.4,1.6,2.4,2.9L161.8,57.9z"
			/>
		<path class="st1" d="M194.6,85.3c-3.7-1.8-6.9-3.6-9.6-5.5l1.1-1.7c2.7,1.8,5.8,3.6,9.4,5.3L194.6,85.3z M182.2,77.9
			c-0.3-0.2-0.6-0.5-0.9-0.7c-2.4-2-4.9-4.2-7.4-6.6l1.4-1.5c2.5,2.3,4.9,4.5,7.3,6.5c0.3,0.2,0.6,0.4,0.8,0.7L182.2,77.9z
			 M171.5,68.3c-2.6-2.5-5.1-5.2-7.6-8l1.5-1.3c2.5,2.7,5,5.4,7.5,7.9L171.5,68.3z"/>
		<path class="st1" d="M199.6,92l-1.4-1.4l2.5-2.4c-0.8-0.3-1.9-0.8-3.2-1.4l0.8-1.8c2.7,1.2,4.5,1.9,4.5,2l1.5,0.6L199.6,92z"/>
		<path class="st1" d="M144.2,130.8l-0.8-1.8c3.1-1.5,6.3-3,9.3-4.6l0.9,1.8C150.5,127.7,147.4,129.3,144.2,130.8z M156.4,124.7
			l-0.9-1.8c3.2-1.7,6.2-3.4,9-5.1l1,1.7C162.6,121.2,159.6,123,156.4,124.7z M168.2,117.9l-1.1-1.7c3.1-1.9,6-3.8,8.6-5.7l1.2,1.6
			C174.3,114,171.3,116,168.2,117.9z M179.5,110.2l-1.2-1.6c3-2.2,5.6-4.4,7.9-6.6l1.4,1.5C185.2,105.7,182.5,108,179.5,110.2z
			 M189.8,101.3l-1.4-1.4c2.7-2.6,5.3-5.1,7.5-7.2l1.4,1.4C195.2,96.2,192.5,98.7,189.8,101.3z"/>
		<path class="st1" d="M135.1,134.8l0.3-1.8c0,0,0.4-2.1,0.8-4.9l2,0.3c-0.2,1.2-0.3,2.3-0.5,3.2c0.7-0.3,1.7-0.8,2.9-1.3l0.8,1.8
			c-2.8,1.3-4.6,2-4.6,2L135.1,134.8z"/>
		<path class="st1" d="M138.6,125.2l-2-0.3c0.6-4.2,0.9-7.3,0.9-8.9l0-0.2c0-0.4,0-0.8-0.1-1.2l2-0.1c0,0.5,0.1,0.9,0.1,1.3l0,0.2
			C139.5,117.8,139.2,120.9,138.6,125.2z M137.1,111.6c-0.3-2.7-0.8-6.2-1.6-10.4l2-0.3c0.7,4.2,1.2,7.8,1.6,10.5L137.1,111.6z"/>
		<path class="st1" d="M135,98.1c-0.2-1.2-0.4-2.3-0.6-3.1l-2.3,2.2l-1.4-1.5l5-4.6l0.3,1.8c0,0,0.4,2,0.9,4.9L135,98.1z"/>
		<rect x="123.7" y="99.3" transform="matrix(0.7323 -0.681 0.681 0.7323 -34.2293 113.5375)" class="st1" width="7.1" height="2"/>
		<polygon class="st1" points="118.2,110.1 118.8,102.5 120.8,102.7 120.6,105.1 122.4,103.5 123.8,104.9 		"/>
		
			<rect x="116.3" y="95.2" transform="matrix(7.908550e-02 -0.9969 0.9969 7.908550e-02 14.9205 208.5652)" class="st1" width="8" height="2"/>
		<path class="st1" d="M121.8,89.9l-2-0.2l0.1-0.8c-0.1,0.2-0.3,0.5-0.4,0.7l-1.7-1.1c1.5-2.5,2.6-4.3,2.6-4.3l2.2-3.6L121.8,89.9z"
			/>
		<path class="st1" d="M93.8,121l-1.5-1.3c0.9-1,1.8-2,2.6-2.9c1.4-1.4,2.7-2.7,4.1-4.1l0.5-0.5l1.4,1.4l-0.5,0.5
			c-1.4,1.4-2.7,2.7-4.1,4.1C95.5,119.1,94.6,120,93.8,121z M103.2,111.4l-1.4-1.4c1.8-1.8,4.3-4.3,6.9-7.7l1.6,1.2
			C107.5,106.9,105,109.5,103.2,111.4z M112.1,101l-1.6-1.2c1.4-1.9,3.3-4.8,5.7-8.7l1.7,1.1C115.4,96.1,113.5,99.1,112.1,101z"/>
		<path class="st1" d="M88.3,128.1l-0.8-0.5c-0.1,0-1.7-1.1-3.7-3.8l1.6-1.2c1,1.3,1.9,2.2,2.5,2.7c0.5-0.7,1.3-1.8,2.4-3.2l1.6,1.2
			c-1.8,2.3-2.9,3.9-2.9,3.9L88.3,128.1z"/>
		<path class="st1" d="M82,121.2c-1.6-2.8-3-6-4-9.6l1.9-0.5c1,3.4,2.2,6.5,3.8,9.1L82,121.2z M77.3,108.6c-0.5-2.3-0.9-4.7-1.1-7.3
			c-0.1-1-0.2-2-0.2-2.9l2-0.1c0.1,0.9,0.1,1.9,0.2,2.9c0.2,2.5,0.6,4.8,1.1,7L77.3,108.6z M75.8,95.3c-0.1-1.9-0.1-3.8-0.1-5.7
			c0-1.5,0-3.1,0.1-4.6l2,0.1c-0.1,1.5-0.1,3-0.1,4.5c0,1.8,0,3.7,0.1,5.6L75.8,95.3z M77.9,82.2l-2-0.1c0.3-3.6,0.7-7,1.3-10.2
			l2,0.4C78.6,75.3,78.1,78.7,77.9,82.2z"/>
		<path class="st1" d="M79.8,69.3l-1-0.2l0,0.1l-0.4-0.2l-0.6-0.1c0,0,0-0.1,0-0.1L77,68.2l2.3-4.4l1.8,0.8
			C81.1,64.6,80.5,66.2,79.8,69.3z"/>
		<path class="st1" d="M66.1,93.1l-1.8-0.9l4.9-9.2l1.8,0.9L66.1,93.1z M72.4,81.1l-1.8-0.9l4.9-9.2l1.8,0.9L72.4,81.1z"/>
		<polygon class="st1" points="61.3,102.3 58.7,95.6 60.6,94.8 61.6,97.4 62.9,95 64.6,95.9 		"/>
		<rect x="56.7" y="86.9" transform="matrix(0.9341 -0.357 0.357 0.9341 -28.3959 26.5432)" class="st1" width="2" height="6.7"/>
		<polygon class="st1" points="54.9,85.6 52.9,85.5 53.2,75.5 56.7,84.8 54.9,85.6 54.9,85.5 		"/>
		<path class="st1" d="M53.7,125.2l-2-0.1l0.3-10.2l2,0.1L53.7,125.2z M54.1,112l-2-0.1l0.3-10.2l2,0.1L54.1,112z M54.5,98.8l-2-0.1
			l0.3-10.2l2,0.1L54.5,98.8z"/>
		<path class="st1" d="M53.3,135.4l-1.6-1.5c-0.1-0.1-1.4-1.3-3.6-3.6l1.5-1.4c0.7,0.8,1.3,1.4,1.9,1.9l0.1-2.7l2,0.1L53.3,135.4z"
			/>
		<path class="st1" d="M45.9,127.9c-2.5-2.8-4.9-5.7-7-8.5l1.6-1.2c2.1,2.8,4.4,5.6,6.9,8.4L45.9,127.9z M37,116.6
			c-2.3-3.2-4.2-6.4-5.7-9.5l1.8-0.9c1.5,3,3.4,6.1,5.6,9.3L37,116.6z M29.8,104.1c-0.6-1.3-1.1-2.6-1.5-3.9
			c-0.7-1.9-1.2-4.3-1.6-6.9l2-0.3c0.4,2.5,0.9,4.7,1.5,6.5c0.4,1.2,0.9,2.5,1.4,3.7L29.8,104.1z"/>
		<path class="st1" d="M26.3,90C26,87.1,26,85,26,84.9l2,0c0,0,0,2.1,0.3,4.9L26.3,90z"/>
	</g>
</g>
<g>
	<path class="st0" d="M120.5,139.5c0,0-13.1,25.7-13.2,34.9c0,7.5,4.5,14.3,12.9,14.5c6.3,0.2,14-2.4,14.9-11.9
		C136.1,166,120.5,139.5,120.5,139.5z"/>
	<path class="st1" d="M120.8,189.9c-0.2,0-0.4,0-0.6,0c-2.7-0.1-5.1-0.8-7.2-2.1l1.1-1.7c1.8,1.1,3.9,1.7,6.2,1.8
		c0.9,0,1.9,0,2.8-0.1l0.2,2C122.5,189.8,121.6,189.9,120.8,189.9z M126.4,189.1l-0.6-1.9c3.3-1,5.6-2.8,7-5.5l1.8,0.9
		C133,185.8,130.1,188,126.4,189.1z M110.5,185.7c-2.3-2.5-3.8-5.9-4.1-9.6l2-0.2c0.3,3.3,1.5,6.3,3.5,8.4L110.5,185.7z
		 M135.7,179.5l-1.9-0.5c0.2-0.7,0.3-1.5,0.4-2.2c0-0.3,0-0.6,0-1c0-1.7-0.3-3.7-1-6.2l1.9-0.5c0.7,2.6,1,4.8,1,6.7
		c0,0.4,0,0.8-0.1,1.2C136,177.9,135.9,178.7,135.7,179.5z M108.4,173.1l-2-0.2c0.3-2.4,1.2-5.7,2.6-9.9l1.9,0.7
		C109.5,167.6,108.7,170.8,108.4,173.1z M132.3,166.9c-0.9-2.7-2.1-5.8-3.6-9.2l1.8-0.8c1.5,3.5,2.8,6.6,3.7,9.4L132.3,166.9z
		 M112,160.8l-1.9-0.7c1.1-2.8,2.4-5.9,3.9-9.3l1.8,0.8C114.4,155,113.1,158.1,112,160.8z M127.5,154.9c-1.3-2.8-2.8-5.8-4.5-8.9
		l1.8-0.9c1.6,3.1,3.2,6.1,4.5,9L127.5,154.9z M117.1,148.9l-1.8-0.8c2.4-5.2,4.4-9,4.4-9.1l0.3-0.5l0.6,0c0.6,0,0.7,0,2.8,3.9
		l-1.8,1c-0.4-0.7-0.7-1.3-1-1.8C119.8,143.2,118.5,145.8,117.1,148.9z"/>
</g>
</svg>
